<svg version="1.1" id="up_arrow" xmlns="http://www.w3.org/2000/svg" xmlns:xlink="http://www.w3.org/1999/xlink" x="0px" y="0px"
	 viewBox="0 0 128 128" style="enable-background:new 0 0 128 128;" xml:space="preserve">
    <style type="text/css">
        .st0{fill:#d9d9e3;}
    </style>
    <g id="up">
        <g>
            <path class="st0" d="M64,0.3C28.7,0.3,0,28.8,0,64s28.7,63.7,64,63.7c35.3,0,64-28.5,64-63.7S99.3,0.3,64,0.3z M64,121.3
			C32.2,121.3,6.4,95.7,6.4,64C6.4,32.3,32.2,6.7,64,6.7c31.8,0,57.6,25.7,57.6,57.3C121.6,95.7,95.8,121.3,64,121.3z M38.4,58.9
			V66c0,2.2,1.8,3.9,3.9,3.9l15.3-12.2v28.7c0,2.2,2.3,3.2,4.4,3.2H66c2.2,0,3.9-1.8,3.9-3.9V57.2l15.8,12.7
			c2.2,0,3.9-1.8,3.9-3.9v-7.1L64,32.2L38.4,58.9z"/>
        </g>
    </g>
</svg>
