<svg xmlns="http://www.w3.org/2000/svg" xml:space="preserve" width="2048px" height="2048px" viewBox="0 0 2048 2048">
  <defs>
    <clipPath id="id0">
      <path d="M1024 0c565.5 0 1024 458.5 1024 1024s-458.5 1024-1024 1024S0 1589.5 0 1024 458.5 0 1024 0z"/>
    </clipPath>
  </defs>
  <g id="Layer_1">
    <path fill="#78909C" d="M1024 0c565.5 0 1024 458.5 1024 1024s-458.5 1024-1024 1024S0 1589.5 0 1024 458.5 0 1024 0z"/>
    <g style="clip-path:url(#id0)">
      <polygon fill="#455A64" points="1015.21 593.43 2151.09 1729.31 1027.15 624.208 1025.08 610.616 1022.61 604.381 1018.01 596.828 1016.65 595.095"/>
      <polygon fill="#455A64" points="1391.1 1182.35 2526.98 2318.23 2505.83 2341.64 1367.57 1205.88 1378.58 1203.02 1390.83 1184.74"/>
      <polygon fill="#455A64" points="999.652 1205.88 2135.53 2341.76 1809.44 2340.7 665.83 1200.48 680.448 1205.88"/>
      <polygon fill="#455A64" points="1048.35 1205.88 2184.23 2341.76 1048.35 1319.26"/>
      <polygon fill="#455A64" points="1363.36 637.157 2499.24 1773.04 1368.75 691.33 1368.63 649.705 1366.9 642.965"/>
      <polygon fill="#455A64" points="1175.42 1327.83 2311.3 2463.71 1183.99 1370.09 1181.69 1337.1 1177.31 1329.9"/>
      <polygon fill="#455A64" points="873.354 1418.79 2009.24 2554.67 463.999 1418.79"/>
      <polygon fill="#455A64" points="1183.99 1418.79 2319.87 2554.67 2038.4 2605.51 883.996 1462.95 1154.82 1469.63 1183.84 1443.43"/>
      <polygon fill="#455A64" points="1584 1418.79 2719.88 2554.67 2319.87 2554.67 1183.99 1418.79"/>
      <polygon fill="#455A64" points="1422.47 714.854 2558.35 1850.74 1391.1 1182.35"/>
      <polygon fill="#455A64" points="1584 1370.09 2719.88 2505.98 2719.88 2554.67 1584 1418.79"/>
      <polygon fill="#455A64" points="1417.44 699.928 2553.32 1835.81 1422.47 714.854"/>
      <path fill="#455A64" d="M1422.47 714.854l-31.3748 467.496c-0.864568 12.8965-10.6063 23.5311-23.5311 23.5311h-319.219v113.376h106.474c16.0429 0 29.1662 13.1244 29.1662 29.1662v21.6685h400.013v48.6969h-400.013v21.6744c0 16.0406-13.1244 29.165-29.1662 29.165h-252.303c-16.0417 0-29.1662-13.1232-29.1662-29.165v-21.6744h-409.355v-48.6969h409.355v-21.6685c0-16.0417 13.1232-29.1662 29.1662-29.1662h97.1316v-113.376h-319.204c-12.9284 0-22.5319-10.6276-23.5311-23.5311l-31.3748-404.746c-0.999213-12.9036 10.5886-23.5311 23.5311-23.5311h11.3728v-152.784c0-12.6047 10.3134-22.9181 22.9181-22.9181h297.947c25.2118 0 45.8386 20.6268 45.8386 45.8374v4.363h318.071c12.9425 0 23.5311 10.5886 23.5311 23.5311v39.228h30.1914c12.9413 0 24.3945 10.6358 23.5299 23.5311z"/>
    </g>
    <path fill="none" d="M1024 0c565.5 0 1024 458.5 1024 1024s-458.5 1024-1024 1024S0 1589.5 0 1024 458.5 0 1024 0z"/>
    <path fill="none" d="M1354.87 783.178c0.0732284 0.00590552 0.290551 0.0767717 0.367323 0.120473"/>
    <path fill="#AC8D5E" d="M683.364 578.371h297.947c25.2118 0 45.8374 20.6268 45.8374 45.8374v4.36418h318.072c12.9425 0 23.5311 10.5874 23.5311 23.5299v352.976h-366.704v-50.2016h-341.602V604.208c0-12.6047 10.3134-22.9181 22.9181-22.9181z"/>
    <rect fill="white" x="725.944" y="653.672" width="577.309" height="301.205"/>
    <polygon fill="#ECEFF1" points="1048.35 1191.1 1048.35 1343.61 999.652 1343.61 999.652 1191.1"/>
    <path fill="#D4AE74" d="M649.073 754.074h230.366l152.465-62.6587h367.038c12.9425 0 24.3957 10.6358 23.5311 23.5311l-31.3748 467.496c-0.864568 12.8965-10.6063 23.5311-23.5311 23.5311H679.526c-12.9284 0-22.5319-10.6276-23.5311-23.5311l-31.3748-404.746c-0.999213-12.9036 10.5886-23.5299 23.5311-23.5299z"/>
    <path fill="#ECEFF1" d="M464 1370.09h433.702v48.6969H464V1370.09zm687.886 0h432.114v48.6969H1151.89V1370.09z"/>
    <path fill="#263238" d="M902.52 1319.26h252.303c16.0429 0 29.1662 13.1244 29.1662 29.1662v92.0398c0 16.0406-13.1244 29.165-29.1662 29.165H902.52c-16.0417 0-29.1662-13.1232-29.1662-29.165v-92.0398c0-16.0417 13.1244-29.1662 29.1662-29.1662zm0 29.1662v92.0398h252.303v-92.0398H902.52z"/>
    <polygon fill="#AC8D5E" points="1444.74 1164.54 463.999 1418.79 1463.73 1418.79"/>
    <path fill="#263238" d="M1018.4 1461.93c-13.624 0-25.6233-8.876-29.4271-22.177-3.804-13.2998 2.2511-27.4518 14.8684-33.5795l347.172-164.256c13.6456-6.4587 29.9887-0.7926 36.4474 12.853 6.4587 13.6456 0.7926 29.9887-12.853 36.4474l-347.172 164.256c-3.806 1.7975-7.8232 2.4561-11.8668 2.4561z"/>
    <path fill="#263238" d="M994.496 1414.7c-9.3475 0-18.2586-4.776-23.2753-13.524-8.3292-12.8321-4.657-30.2107 8.1751-38.5399l438.9-284.83c12.8352-8.3311 30.2107-4.6582 38.5399 8.1749 8.3292 12.8321 4.657 30.2107-8.1751 38.5399l-438.9 284.83c-4.599 2.9827-9.675 4.349-14.2646 4.349z"/>
    <path fill="#263238" d="M1008.56 1490.6c-6.8623 0-13.6228-2.6105-18.7903-7.7139-10.8476-10.3797-11.237-27.7272-0.8573-38.5748l195.776-204.442c10.3797-10.8476 27.7272-11.236 38.5748-0.8573 10.8476 10.3797 11.237 27.7272 0.8573 38.5748l-195.776 204.442c-5.4064 5.6477-12.5568 8.6711-19.7859 8.6711z"/>
    <path fill="#263238" d="M1127.6 1470.36c-1.4346 0-2.8873-0.103-4.3488-0.3154l-61.8594-9.02814c-14.7223-2.14812-24.6981-16.0062-22.55-30.7285 2.1481-14.7223 16.004-24.6981 30.7285-22.55l61.8594 9.02814c14.7223 2.14812 24.6981 16.0062 22.55 30.7285-1.968 13.4961-13.647 23.8655-27.3802 23.8655z"/>
    <circle fill="#263238" cx="1433.63" cy="857.631" r="44.591"/>
    <path fill="#263238" d="M1365.45 968.179c-25.6474 0-46.4615-20.8141-46.4615-46.4615s20.8141-46.4615 46.4615-46.4615 46.4615 20.8141 46.4615 46.4615-20.8141 46.4615-46.4615 46.4615zm0-91.056c-24.5828 0-44.5941 20.0114-44.5941 44.5941 0 24.5828 20.0114 44.5941 44.5941 44.5941 24.5828 0 44.5941-20.0114 44.5941-44.5941 0-24.5828-20.0114-44.5941-44.5941-44.5941z"/>
  </g>
</svg>
